<?xml version="1.0" encoding="UTF-8"?>
<svg width="752pt" height="752pt" version="1.1" viewBox="0 0 752 752" xmlns="http://www.w3.org/2000/svg">
 <g>
  <path d="m249.71 549.65h252.58v31.57h-252.58z"/>
  <path d="m502.29 328.64c0-126.29-94.715-126.29-94.715-126.29s-15.785-47.359-47.359-47.359v47.359h-15.785v15.785l-47.359 15.785v15.785l-78.93 47.359v31.57l15.785 31.57h47.359l31.57-31.57h63.145s-94.715 47.359-94.715 173.64h189.43c-31.574-94.711 31.57-47.355 31.57-173.64zm-173.64-63.145v-15.785h31.57c0 15.785-31.57 15.785-31.57 15.785z"/>
  <path d="m265.5 518.07h221v15.785h-221z"/>
 </g>
</svg>